<svg xmlns="http://www.w3.org/2000/svg" width="1206" height="564" viewBox="0 0 1206 564">
  <g id="Group_1931" data-name="Group 1931" transform="translate(-80 -696)">
    <path id="Subtraction_6" data-name="Subtraction 6" d="M1205.943,0H.058C.019,2.255,0,4.532,0,6.77A399.319,399.319,0,0,0,3.113,56.485a400.39,400.39,0,0,0,9.138,48.278,410.593,410.593,0,0,0,14.858,46.6,428.761,428.761,0,0,0,20.277,44.673,453.193,453.193,0,0,0,25.392,42.5,482.4,482.4,0,0,0,30.2,40.09c10.774,12.859,22.453,25.453,34.713,37.431,12.231,11.95,25.325,23.567,38.919,34.529s28,21.52,42.821,31.382c14.857,9.887,30.476,19.3,46.421,27.991,16.024,8.729,32.751,16.923,49.717,24.355,17.09,7.486,34.824,14.374,52.711,20.475,18.055,6.158,36.694,11.659,55.4,16.35,18.918,4.745,38.361,8.776,57.789,11.981,19.682,3.248,39.825,5.727,59.872,7.368C561.689,492.155,582.432,493,603,493s41.311-.845,61.653-2.51c20.047-1.642,40.19-4.121,59.872-7.368,19.427-3.206,38.87-7.237,57.789-11.981,18.706-4.691,37.346-10.193,55.4-16.35,17.887-6.1,35.621-12.989,52.71-20.475,16.966-7.432,33.694-15.626,49.718-24.355,15.946-8.687,31.565-18.1,46.421-27.991,14.82-9.862,29.227-20.42,42.822-31.382s26.687-22.578,38.919-34.529c12.261-11.98,23.94-24.574,34.713-37.431a482.413,482.413,0,0,0,30.2-40.09,453.2,453.2,0,0,0,25.392-42.5,428.8,428.8,0,0,0,20.277-44.673,410.694,410.694,0,0,0,14.859-46.6,400.555,400.555,0,0,0,9.138-48.278A399.383,399.383,0,0,0,1206,6.77c0-2.247-.019-4.524-.057-6.769Z" transform="translate(80 767)" fill="#f59c23" opacity="0.1"/>
    <path id="Subtraction_7" data-name="Subtraction 7" d="M1205.943,493H.058C.019,490.745,0,488.468,0,486.23a397.568,397.568,0,0,1,12.251-97.992,410.593,410.593,0,0,1,14.858-46.6,428.761,428.761,0,0,1,20.277-44.673,453.193,453.193,0,0,1,25.392-42.5,482.4,482.4,0,0,1,30.2-40.09c10.774-12.859,22.453-25.453,34.713-37.431,12.231-11.95,25.325-23.567,38.919-34.529s28-21.52,42.821-31.382c14.857-9.887,30.476-19.3,46.421-27.991,16.024-8.729,32.751-16.923,49.717-24.355C332.664,51.2,350.4,44.311,368.285,38.21c18.055-6.158,36.694-11.659,55.4-16.35,18.918-4.745,38.361-8.776,57.789-11.981C501.157,6.631,521.3,4.152,541.347,2.51,561.689.845,582.432,0,603,0s41.311.845,61.653,2.51c20.047,1.642,40.19,4.121,59.872,7.368,19.427,3.206,38.87,7.237,57.789,11.981,18.706,4.691,37.346,10.193,55.4,16.35,17.887,6.1,35.621,12.989,52.71,20.475,16.966,7.432,33.694,15.626,49.718,24.355,15.946,8.687,31.565,18.1,46.421,27.991,14.82,9.862,29.227,20.42,42.822,31.382s26.687,22.578,38.919,34.529c12.261,11.98,23.94,24.574,34.713,37.431a482.413,482.413,0,0,1,30.2,40.09,453.2,453.2,0,0,1,25.392,42.5,428.8,428.8,0,0,1,20.277,44.673,410.694,410.694,0,0,1,14.859,46.6A397.561,397.561,0,0,1,1206,486.23c0,2.247-.019,4.524-.057,6.769Z" transform="translate(80 696)" fill="#f59c23" opacity="0.1"/>
  </g>
</svg>